<?xml version="1.0" encoding="UTF-8"?>
<svg xmlns="http://www.w3.org/2000/svg" version="1.1" xmlns:xlink="http://www.w3.org/1999/xlink" viewBox="0 0 862.2 172.9">
  <!-- Generator: Adobe Illustrator 29.1.0, SVG Export Plug-In . SVG Version: 2.1.0 Build 142)  -->
  <defs>
    <style>
      .st0, .st1, .st2 {
        fill: #fff;
      }

      .st0, .st1, .st2, .st3, .st4 {
        stroke: #6d4848;
        stroke-linecap: round;
        stroke-linejoin: round;
      }

      .st0, .st3 {
        stroke-width: 3.3px;
      }

      .st5 {
        fill: #51babf;
      }

      .st5, .st6, .st7, .st8 {
        isolation: isolate;
      }

      .st5, .st8 {
        mix-blend-mode: soft-light;
      }

      .st9 {
        fill: none;
      }

      .st1 {
        stroke-width: 2.7px;
      }

      .st10 {
        clip-path: url(#clippath-1);
      }

      .st11 {
        opacity: .5;
      }

      .st11, .st7 {
        mix-blend-mode: overlay;
      }

      .st2, .st4 {
        stroke-width: 2.7px;
      }

      .st7 {
        fill: url(#linear-gradient1);
      }

      .st8 {
        fill: #b5e5d0;
      }

      .st12, .st3, .st4 {
        fill: #f36869;
      }

      .st13 {
        fill: url(#linear-gradient);
      }

      .st14 {
        clip-path: url(#clippath);
      }
    </style>
    <linearGradient id="linear-gradient" x1="431.1" y1="8.7" x2="431.1" y2="153.6" gradientTransform="translate(0 174) scale(1 -1)" gradientUnits="userSpaceOnUse">
      <stop offset="0" stop-color="#91c7c7"/>
      <stop offset="1" stop-color="#e2fdff"/>
    </linearGradient>
    <clipPath id="clippath">
      <rect class="st9" width="862.2" height="172.9" rx="10.8" ry="10.8"/>
    </clipPath>
    <clipPath id="clippath-1">
      <rect class="st9" width="862.2" height="172.9" rx="10.8" ry="10.8"/>
    </clipPath>
    <linearGradient id="linear-gradient1" x1="569" y1="40.9" x2="403.1" y2="157" gradientTransform="translate(-368.4 84.5) rotate(12.4) scale(1 -1)" gradientUnits="userSpaceOnUse">
      <stop offset="0" stop-color="#e9ffff"/>
      <stop offset=".4" stop-color="#f2f2f2"/>
      <stop offset="1" stop-color="#e9ffff"/>
    </linearGradient>
  </defs>
  <g class="st6">
    <g id="Layer_1">
      <g class="st6">
        <g id="Layer_11" data-name="Layer_1">
          <rect class="st13" width="862.2" height="172.9" rx="12" ry="12"/>
        </g>
        <g class="st14">
          <g>
            <rect class="st4" x="701.2" y="92.3" width="147" height="115.6"/>
            <rect class="st2" x="698.8" y="141.9" width="151.9" height="27.1"/>
            <rect class="st2" x="759.2" y="89.7" width="31" height="120.9"/>
            <rect class="st2" x="759.2" y="89.7" width="31" height="120.9"/>
            <g>
              <g>
                <g>
                  <g>
                    <path class="st2" d="M795.5,66.3s.8-1.4,6.8-12-16.9-48.7-25.2-49.8c-8.3-1.1-19.4,28.4-22.6,34.1-3.2,5.7,41.1,27.6,41.1,27.6Z"/>
                    <path class="st12" d="M798.2,49.7c.5-10.2-15.9-41.6-20-40.3-4.1,1.3-9.8,4.9-6.2,11.7,3.9,7.8,25.8,35.7,26.2,28.6h0Z"/>
                  </g>
                  <g>
                    <path class="st2" d="M795.5,66.3s.8-1.4,6.8-12,50.5-10.7,55.6-4.1-14.3,31.3-17.5,37c-3.2,5.7-44.9-20.9-44.9-20.9h0Z"/>
                    <path class="st12" d="M808.4,55.4c8.5-5.7,43.9-7.9,44.8-3.7,1,4.2.9,10.9-6.8,11.3-8.7.7-43.9-3.7-38-7.6h0Z"/>
                  </g>
                </g>
                <rect class="st1" x="792.1" y="44.4" width="18" height="24.2" rx="8.8" ry="8.8" transform="translate(358.1 726.4) rotate(-60.6)"/>
              </g>
              <g>
                <rect class="st3" x="776.1" y="-.2" width="28.2" height="151.9" transform="translate(335.8 726.7) rotate(-60.6)"/>
                <rect class="st0" x="773.6" y="60.2" width="33.3" height="31" transform="translate(335.9 726.7) rotate(-60.6)"/>
              </g>
            </g>
          </g>
        </g>
      </g>
      <g class="st11">
        <g class="st10">
          <g>
            <circle class="st5" cx="269.8" cy="-10.4" r="50.3"/>
            <circle class="st5" cx="461.9" cy="25.8" r="75.4"/>
            <circle class="st5" cx="563.4" cy="63.1" r="55.3"/>
            <circle class="st5" cx="752.5" cy="75.1" r="33.2"/>
            <circle class="st8" cx="716.3" cy="-15.4" r="52.3"/>
            <circle class="st8" cx="804.4" cy="121" r="52.3"/>
            <circle class="st8" cx="298" cy="162.6" r="54.3"/>
            <circle class="st5" cx="349.2" cy="133.4" r="18.1"/>
            <circle class="st5" cx="15.2" cy="163.6" r="18.3" transform="translate(-148.7 174.5) rotate(-88.5)"/>
            <circle class="st8" cx="684.1" cy="172.7" r="38.2"/>
            <path class="st7" d="M217.4,161.8l-25.4-23.2,17.9-.8c4.1-.2,7.3-3.7,7.1-7.8s-3.7-7.3-7.8-7.2l-32.9,1.5-18.9-17.3,16.6-.8c3.8-.2,6.8-3.2,7.1-6.9,1.3-3.5-.2-7.5-3.6-9.2l-16.9-8.8,24.4-7.8,31.3,16.2c.6.3,1.2.5,1.9.7,3.2.7,6.7-.8,8.3-3.9,1.9-3.7.5-8.2-3.2-10.1l-18-9.3,34.4-10.9c3.9-1.2,6.1-5.5,4.9-9.4s-5.5-6.1-9.4-4.9l-32.8,10.4,8.2-15.9c1.9-3.7.5-8.2-3.2-10.1-3.7-1.9-8.2-.5-10.1,3.2l-15.1,29.2-24.4,7.8,7.6-14.8c1.8-3.4.7-7.5-2.4-9.6-2.4-2.9-6.6-3.6-9.8-1.5l-16.1,10.3,5.5-25,29.7-19c3.5-2.2,4.5-6.9,2.3-10.4-2.2-3.5-6.9-4.5-10.4-2.3l-17.1,10.9,7.7-35.3c.9-4.1-1.7-8.1-5.7-8.9s-8.1,1.7-8.9,5.7L132.8.2l-9.6-15.1c-2.2-3.5-6.9-4.5-10.4-2.3-3.5,2.2-4.5,6.9-2.3,10.4l17.7,27.7-5.5,25-9-14c-2.1-3.2-6.2-4.3-9.6-2.7-3.7.6-6.4,3.9-6.2,7.7l.9,19-18.9-17.3-1.6-35.3c-.2-4.1-3.7-7.3-7.8-7.2S63.2,0,63.4,4.1l.9,20.3L37.6,0c-3.1-2.8-7.8-2.6-10.6.5-2.8,3.1-2.6,7.8.5,10.6l25.4,23.2-17.9.8c-4.1.2-7.3,3.7-7.1,7.8.2,3.5,2.6,6.3,5.9,7,.6.1,1.3.2,2,.2l32.8-1.5,18.9,17.3-16.6.8c-3.8.2-6.8,3.2-7.1,6.9-1.3,3.5.2,7.5,3.6,9.2l16.9,8.8-24.4,7.8-31.3-16.2c-3.7-1.9-8.2-.5-10.1,3.2-1.9,3.7-.5,8.2,3.2,10.1l18,9.3-34.4,10.9c-4,1.2-6.1,5.5-4.9,9.4.8,2.7,3,4.5,5.6,5.1,1.2.3,2.6.2,3.9-.2l32.8-10.4-8.2,15.9c-1.9,3.7-.5,8.2,3.2,10.1.6.3,1.2.5,1.8.7,3.2.7,6.7-.8,8.3-3.9l15.1-29.2,24.4-7.8-7.7,14.8c-1.8,3.4-.7,7.5,2.4,9.6,1.1,1.3,2.6,2.2,4.2,2.5,1.9.4,3.9.1,5.7-1l16-10.3-5.5,25-29.7,19c-3.5,2.2-4.5,6.9-2.3,10.4,1.1,1.7,2.8,2.9,4.7,3.3s3.9.1,5.7-1l17.1-10.9-7.7,35.3c-.9,4.1,1.7,8.1,5.7,8.9s8.1-1.7,8.9-5.7l7.4-33.6,9.6,15.1c1.1,1.7,2.8,2.9,4.7,3.3,1.9.4,3.9.1,5.6-1,3.5-2.2,4.5-6.9,2.3-10.4l-17.7-27.7,5.5-25,9,14c1.1,1.7,2.8,2.9,4.7,3.3,1.6.4,3.3.2,4.8-.6,3.7-.6,6.4-3.9,6.2-7.7l-.9-19,18.9,17.3,1.6,35.3c.2,3.5,2.6,6.3,5.9,7,.6.1,1.3.2,2,.2,4.1-.2,7.3-3.7,7.1-7.8l-.9-20.3,26.7,24.4c1,.9,2.2,1.5,3.4,1.8,2.5.6,5.3-.2,7.1-2.3,2.8-3.1,2.6-7.8-.5-10.6h0Z"/>
          </g>
        </g>
      </g>
    </g>
  </g>
</svg>