<?xml version="1.0" encoding="UTF-8"?>
<svg xmlns="http://www.w3.org/2000/svg" xmlns:xlink="http://www.w3.org/1999/xlink" viewBox="0 0 862.22 172.89">
  <defs>
    <style>
      .cls-1 {
        fill: url(#linear-gradient-2);
      }

      .cls-1, .cls-2 {
        mix-blend-mode: overlay;
      }

      .cls-3 {
        fill: #9364b2;
      }

      .cls-3, .cls-4 {
        stroke-width: 2.72px;
      }

      .cls-3, .cls-4, .cls-5 {
        stroke: #c1dcf7;
        stroke-linecap: round;
        stroke-linejoin: round;
      }

      .cls-4, .cls-6, .cls-5 {
        fill: #a9a4e6;
      }

      .cls-7 {
        fill: none;
      }

      .cls-8 {
        clip-path: url(#clippath-1);
      }

      .cls-9 {
        isolation: isolate;
      }

      .cls-10 {
        fill: #19f49b;
      }

      .cls-10, .cls-11 {
        mix-blend-mode: soft-light;
      }

      .cls-11 {
        fill: #16e2f7;
      }

      .cls-5 {
        stroke-width: 3.26px;
      }

      .cls-12 {
        fill: url(#linear-gradient);
      }

      .cls-13 {
        clip-path: url(#clippath);
      }
    </style>
    <linearGradient id="linear-gradient" x1="431.11" y1="165.33" x2="431.11" y2="20.35" gradientUnits="userSpaceOnUse">
      <stop offset="0" stop-color="#4fffff"/>
      <stop offset="1" stop-color="#e2fdff"/>
    </linearGradient>
    <clipPath id="clippath">
      <rect class="cls-7" width="862.22" height="172.89" rx="10.78" ry="10.78"/>
    </clipPath>
    <linearGradient id="linear-gradient-2" x1="226.34" y1="284.81" x2="60.41" y2="168.66" gradientTransform="translate(36.12 -160.2) rotate(12.38)" gradientUnits="userSpaceOnUse">
      <stop offset="0" stop-color="#e9ffff"/>
      <stop offset=".42" stop-color="#f2f2f2"/>
      <stop offset="1" stop-color="#e9ffff"/>
    </linearGradient>
    <clipPath id="clippath-1">
      <rect class="cls-7" width="862.22" height="172.89" rx="10.78" ry="10.78"/>
    </clipPath>
  </defs>
  <g class="cls-9">
    <g id="Layer_1" data-name="Layer 1">
      <rect class="cls-12" width="862.22" height="172.89" rx="12" ry="12"/>
      <g class="cls-2">
        <g class="cls-13">
          <circle class="cls-11" cx="269.79" cy="-10.36" r="50.28"/>
          <circle class="cls-11" cx="461.87" cy="25.85" r="75.42"/>
          <circle class="cls-11" cx="563.44" cy="63.06" r="55.31"/>
          <circle class="cls-11" cx="752.51" cy="75.12" r="33.19"/>
          <circle class="cls-10" cx="716.3" cy="-15.39" r="52.29"/>
          <circle class="cls-10" cx="804.37" cy="121.01" r="52.29"/>
          <circle class="cls-10" cx="297.95" cy="162.62" r="54.31"/>
          <circle class="cls-11" cx="349.24" cy="133.45" r="18.1"/>
          <circle class="cls-11" cx="15.24" cy="163.6" r="18.32"/>
          <circle class="cls-10" cx="684.12" cy="172.67" r="38.22"/>
          <path class="cls-1" d="M217.38,161.75l-25.43-23.2,17.87-.82c4.14-.19,7.34-3.7,7.15-7.84-.19-4.14-3.69-7.34-7.84-7.15l-32.85,1.5-18.92-17.26,16.63-.76c3.83-.18,6.84-3.19,7.13-6.91,1.3-3.5-.18-7.49-3.58-9.25l-16.92-8.76,24.41-7.75,31.34,16.23c.6.31,1.22.53,1.85.67,3.23.71,6.67-.8,8.26-3.88,1.9-3.68.47-8.2-3.21-10.11l-18.02-9.33,34.43-10.94c3.95-1.25,6.13-5.47,4.88-9.42-1.25-3.95-5.47-6.13-9.42-4.88l-32.81,10.42,8.22-15.88c1.9-3.68.47-8.2-3.21-10.11-3.68-1.91-8.2-.47-10.11,3.21l-15.12,29.2-24.41,7.75,7.65-14.78c1.76-3.4.66-7.52-2.42-9.63-2.38-2.87-6.58-3.59-9.81-1.53l-16.05,10.27,5.49-25.01,29.73-19.03c3.49-2.23,4.51-6.87,2.27-10.36-2.23-3.49-6.87-4.51-10.36-2.27l-17.09,10.94,7.74-35.29c.89-4.05-1.67-8.05-5.72-8.93s-8.05,1.67-8.93,5.72L132.82.21l-9.64-15.06c-2.23-3.49-6.87-4.51-10.36-2.27-3.49,2.23-4.51,6.87-2.27,10.36l17.73,27.7-5.49,25.01-8.97-14.02c-2.06-3.23-6.18-4.33-9.55-2.72-3.68.63-6.4,3.91-6.23,7.73l.87,19.03-18.92-17.26-1.62-35.26c-.19-4.14-3.7-7.34-7.84-7.15-4.14.19-7.34,3.7-7.15,7.84l.93,20.27L37.64.06c-3.06-2.79-7.8-2.58-10.6.49-2.79,3.06-2.57,7.8.49,10.6l25.43,23.2-17.87.82c-4.14.19-7.34,3.7-7.15,7.84.16,3.47,2.64,6.27,5.88,6.98.63.14,1.28.2,1.96.17l32.85-1.5,18.92,17.26-16.63.76c-3.83.17-6.84,3.19-7.13,6.91-1.3,3.5.18,7.5,3.58,9.25l16.92,8.76-24.41,7.75-31.34-16.23c-3.68-1.91-8.2-.47-10.11,3.21-1.9,3.68-.47,8.2,3.21,10.11l18.02,9.33-34.43,10.94c-3.95,1.25-6.13,5.47-4.88,9.42.84,2.65,3.02,4.5,5.55,5.06,1.24.27,2.57.23,3.87-.18l32.81-10.42-8.22,15.88c-1.9,3.68-.47,8.2,3.21,10.11.6.31,1.22.53,1.85.67,3.23.71,6.67-.8,8.26-3.88l15.12-29.2,24.41-7.75-7.65,14.78c-1.76,3.4-.66,7.52,2.42,9.63,1.09,1.32,2.57,2.19,4.16,2.54,1.87.41,3.91.11,5.65-1.01l16.05-10.27-5.49,25.01-29.73,19.03c-3.49,2.23-4.51,6.87-2.27,10.36,1.12,1.74,2.83,2.87,4.71,3.28s3.91.11,5.65-1.01l17.09-10.94-7.74,35.29c-.89,4.05,1.67,8.05,5.72,8.93s8.05-1.67,8.93-5.72l7.38-33.62,9.64,15.07c1.12,1.74,2.83,2.87,4.71,3.28s3.91.11,5.65-1.01c3.49-2.23,4.51-6.87,2.27-10.36l-17.73-27.7,5.49-25.01,8.97,14.02c1.12,1.74,2.83,2.87,4.71,3.28,1.59.35,3.29.18,4.84-.56,3.68-.62,6.4-3.91,6.23-7.73l-.87-19.03,18.92,17.26,1.62,35.26c.16,3.47,2.64,6.27,5.88,6.98.63.14,1.28.2,1.96.17,4.14-.19,7.34-3.7,7.15-7.84l-.93-20.27,26.69,24.35c1.01.92,2.2,1.51,3.44,1.78,2.53.56,5.28-.22,7.15-2.27,2.79-3.06,2.57-7.8-.49-10.6Z"/>
        </g>
      </g>
    </g>
    <g id="Layer_2" data-name="Layer 2">
      <g class="cls-8">
        <g>
          <g>
            <g>
              <g>
                <path class="cls-3" d="M774.71,95.61v-13.74c0-12.09-38.69-34.09-46.42-30.95s-2.9,34.29-2.9,40.82,49.33,3.87,49.33,3.87Z"/>
                <path class="cls-6" d="M768.91,79.81c-4.59-9.14-34.33-28.41-37.24-25.26s-6.13,9.11.4,13.22c7.25,4.84,40.01,18.36,36.83,12.04Z"/>
              </g>
              <g>
                <path class="cls-3" d="M774.71,95.61s0-1.65,0-13.74c0-12.09,38.69-34.09,46.42-30.95s2.9,34.29,2.9,40.82-49.33,3.87-49.33,3.87Z"/>
                <path class="cls-6" d="M780.52,79.81c4.59-9.14,34.33-28.41,37.24-25.26s6.13,9.11-.4,13.22c-7.25,4.84-40.01,18.36-36.83,12.04Z"/>
              </g>
            </g>
            <rect class="cls-3" x="762.62" y="75.24" width="24.18" height="18.05" rx="8.81" ry="8.81"/>
          </g>
          <rect class="cls-4" x="701.23" y="92.32" width="146.97" height="115.58"/>
          <rect class="cls-3" x="698.75" y="141.89" width="151.92" height="27.08"/>
          <rect class="cls-3" x="759.2" y="89.66" width="31.02" height="120.9"/>
          <g>
            <rect class="cls-5" x="698.75" y="92.32" width="151.92" height="28.21"/>
            <rect class="cls-5" x="759.2" y="89.66" width="31.02" height="33.29"/>
          </g>
          <rect class="cls-3" x="759.2" y="89.66" width="31.02" height="120.9"/>
        </g>
      </g>
    </g>
  </g>
</svg>